<?xml version="1.0" encoding="utf-8"?>
<!DOCTYPE svg PUBLIC "-//W3C//DTD SVG 1.1//EN" "http://www.w3.org/Graphics/SVG/1.1/DTD/svg11.dtd">
<svg version="1.1" id="AddIcon" xmlns="http://www.w3.org/2000/svg" xmlns:xlink="http://www.w3.org/1999/xlink"
     x="0" y="0"
     viewBox="0 0 93.750002 93.750002" enable-background="new 0 0 93.750002 93.750002" xml:space="preserve">
    <g>
        <path d="M 116.76337 147.75303 C 95.210155 144.53485 78.192873 122.92013 80.499363 101.17321 81.862718 83.148502 95.489241 66.72887 113.15036 62.538544 c 14.96801 -3.891262 31.86369 0.865139 42.21341 12.459769 12.16374 12.88943 15.71644 33.493457 7.26709 49.299967 -7.31486 14.33751 -22.8219 24.29391 -39.04792 23.95696 -2.28134 -0.005 -4.56166 -0.17766 -6.81957 -0.50221 z m 18.75 -9.44327 c 16.5467 -5.32663 27.25054 -24.05538 23.2565 -41.004972 -3.03639 -14.138671 -15.19033 -25.829065 -29.58026 -27.840124 -13.6097 -2.329713 -27.99512 4.314438 -35.39269 15.904531 -8.078175 11.73252 -7.453659 28.257995 0.823549 39.715235 7.519051 10.82737 21.442391 17.47554 34.576881 15.02284 2.14466 -0.44896 4.24264 -1.09451 6.31602 -1.79751 z m -17.68607 -7.39951 c -3.55725 -2.52147 -2.15833 -7.36081 -2.47018 -11.08744 0 -2.219 0 -4.43801 0 -6.65701 -4.97168 -0.11152 -9.9842 0.29386 -14.92038 -0.36529 -6.089138 -2.49914 -6.280786 -12.45666 -0.863756 -15.840405 4.656466 -1.203688 9.573216 -0.475442 14.350606 -0.669307 2.2343 0.678597 1.21727 -1.894137 1.43353 -3.233586 0.16428 -4.179345 -0.48616 -8.49286 0.66931 -12.550554 3.38374 -5.417032 13.34126 -5.22538 15.8404 0.863755 0.65998 4.936102 0.25369 9.948711 0.36529 14.920385 4.97168 0.111516 9.98421 -0.293862 14.92039 0.365294 6.08914 2.499141 6.28078 12.456658 0.86375 15.840398 -4.65646 1.20369 -9.57321 0.47544 -14.3506 0.66931 -2.23431 -0.6786 -1.21729 1.89413 -1.43354 3.23359 -0.16428 4.17934 0.48616 8.49285 -0.66931 12.55055 -2.83009 4.43 -9.69737 5.05517 -13.73551 1.96031 z" transform="translate(-75.982124,-56.915798)"></path>
    </g>
</svg>
